<svg viewBox="0 0 123.5 140.31" xmlns="http://www.w3.org/2000/svg"><defs><style>.cls-1{fill:#2ea3f2;}.cls-2{fill:none;stroke:#2ea3f2;stroke-miterlimit:10;stroke-width:2.01px;}</style></defs><g data-name="Capa 2" id="Capa_2"><g data-name="Capa 1" id="Capa_1-2"><circle r="10.34" cy="44.05" cx="44.05" class="cls-1"></circle><path d="M58.8,57.78c-.74-.29-16.64-2.51-25.09,0C23.51,60.82,18.8,93,18.8,93s1,8.81,7.79,2L33.71,69v68.81s4.83,5.43,7.84,0v-38h4.37l1.35,38.64s4.07,4.07,7.12,0V66.6s7.12,8.47,9.49,8.47S78.46,64.9,78.12,58.46,66.59,64.9,66.59,64.9Z" class="cls-1"></path><path d="M84.8,75.26a6.67,6.67,0,0,1-2.57,5.86s-1.58-5.51-2.84-5.4-5.16,1.14-1.68,6.79a6.69,6.69,0,0,1-3.64-12,6.26,6.26,0,0,1,3-1.28,2.22,2.22,0,0,1,.46-.06A6.69,6.69,0,0,1,84.8,75.26Z" class="cls-1"></path><path d="M77.09,69.14v.08a6.26,6.26,0,0,0-3,1.28l0-.35L70.41,53.63a6.84,6.84,0,0,0,3.64-1.07Z" class="cls-1"></path><path d="M71.37,40.31a6.71,6.71,0,0,1,2.68,12.25,6.84,6.84,0,0,1-3.64,1.07,6.69,6.69,0,0,1-3.64-12.31s1.1,5.62,2.36,5.62S74.37,46.24,71.37,40.31Z" class="cls-1"></path><rect rx="21.02" height="138.31" width="94.92" y="1" x="1" class="cls-2"></rect><path d="M103.62,70.63l8.25-9.95a2.28,2.28,0,0,1,3.57.07l7.59,10a2.28,2.28,0,0,1-1.82,3.67H105.38A2.29,2.29,0,0,1,103.62,70.63Z" class="cls-1"></path><path d="M103.62,81l8.25,10a2.28,2.28,0,0,0,3.57-.07l7.59-10a2.29,2.29,0,0,0-1.82-3.67H105.38A2.29,2.29,0,0,0,103.62,81Z" class="cls-1"></path></g></g></svg>