<?xml version="1.0" encoding="utf-8"?><svg id="Layer_1" data-name="Layer 1" xmlns="http://www.w3.org/2000/svg" viewBox="0 0 295 66"><defs><style>.cls-1{fill:#00a2df;}.cls-2,.cls-3{fill:#293274;}.cls-3{fill-rule:evenodd;}</style></defs><title>logo ascensores alapont</title><path class="cls-1" d="M12.29,36.88c3.18-2.52,31.48-25,33.25-26.1l.44-.32c2.83-1.93,2.62,1.86,2.32,5.26-.23,2.57-1.95,3.67-4,5.29-.27.22-30.93,24.53-33.69,26.41S8,45.57,8.3,42.17C8.53,39.6,10.25,38.5,12.29,36.88Z"/><path class="cls-2" d="M12.53,48.9c3.18-2.52,31.28-24.8,33-25.94l.44-.31c2.83-1.93,2.62,1.86,2.32,5.26-.23,2.57-1.95,3.67-4,5.29-.27.22-30.72,24.37-33.49,26.25S8.24,57.6,8.55,54.2C8.77,51.63,10.5,50.53,12.53,48.9Z"/><polygon class="cls-3" points="19.05 49.05 32.68 49.05 32.68 35.55 19.05 49.05"/><path class="cls-1" d="M45.35,51.17c.07-3.32.17-8.65,0-10.3,0-.26,0-.35,0-.43-.25-2.73-2.89-.26-6,2.42-2.32,2-2.1,3.63-2.15,5.76,0,.29-.17,7.53.07,10.19s2.89.26,6-2.42C45.53,54.36,45.31,53.31,45.35,51.17Z"/><path class="cls-3" d="M65.53,44H78.16L72.32,33ZM54.45,52s12.36-20.62,13.1-22a2.32,2.32,0,0,1,2.15-1.21h4.7c2.15,0,2.55,1.41,2.55,1.41L89.51,52H83.2l-2.08-3.43H62.71L60.9,52Z"/><path class="cls-3" d="M91.05,28.81H97.3V45.06a2.07,2.07,0,0,0,2.15,2H120.8V52H98.91s-7.86.27-7.86-6.65Z"/><path class="cls-3" d="M133.17,44H145.8L140,33Zm-11.08,8s12.36-20.62,13.1-22a2.32,2.32,0,0,1,2.15-1.21H142c2.15,0,2.55,1.41,2.55,1.41L157.15,52h-6.31l-2.08-3.43h-18.4L128.54,52Z"/><polygon class="cls-2" points="258.14 28.81 287.69 28.81 287.69 33.71 276.14 33.71 276.14 52.25 269.9 52.25 269.9 33.71 258.14 33.71 258.14 28.81"/><path class="cls-3" d="M201,33.82s-4.19-.54-4.19,6.75,3.95,6.52,3.95,6.52h9.71s4.4.73,4.4-6.6-4.44-6.68-4.44-6.68Zm-.83-5h12.09s8.46-1.14,8.46,11.69-8.4,11.55-8.4,11.55H199.72s-8.8,1.34-8.8-11.42S200.12,28.83,200.12,28.83Z"/><path class="cls-3" d="M225.37,52.19h6.38V35.74s.13-1.88,1.74-1.88h13.43a2,2,0,0,1,1.75,2.22v16h6.38V34.26s-.54-5.44-5.77-5.44H232.15s-6.78-.54-6.78,5.51Z"/><path class="cls-3" d="M166.14,33.81v3.83H180s2.35.2,2.35-1.95S180,33.81,180,33.81Zm-6.45-5h20.82s7.79.07,7.79,7-7.79,6.71-7.79,6.71H166.14V52h-6.31Z"/><path class="cls-1" d="M73.6,9.95l-4.71,10.4h1.7l1.13-2.56H77l1.13,2.56h1.72L75.16,9.95Zm2.84,6.5H72.3l2.07-4.71Z"/><path class="cls-1" d="M85.19,16.12a12,12,0,0,0-1.52-.35c-.48-.09-.83-.17-1.08-.23a1.58,1.58,0,0,1-.62-.3.65.65,0,0,1-.23-.53.79.79,0,0,1,.43-.7,2.51,2.51,0,0,1,1.31-.28,4,4,0,0,1,2.19.6l.08.05.68-1.26-.07,0a4.26,4.26,0,0,0-1.3-.52,6.62,6.62,0,0,0-1.57-.19,4,4,0,0,0-2.4.65,2.07,2.07,0,0,0-.91,1.76,1.88,1.88,0,0,0,.45,1.33,2.45,2.45,0,0,0,1.05.67,10.49,10.49,0,0,0,1.54.34c.45.08.81.15,1.05.21a1.49,1.49,0,0,1,.59.28.59.59,0,0,1,.22.49c0,.65-.57,1-1.75,1a5.05,5.05,0,0,1-1.45-.22,4.13,4.13,0,0,1-1.22-.57l-.08-.06-.66,1.26.06,0a4.11,4.11,0,0,0,1.4.67,6.63,6.63,0,0,0,1.85.26,4.34,4.34,0,0,0,2.5-.64,2,2,0,0,0,.94-1.74,1.82,1.82,0,0,0-.43-1.29A2.35,2.35,0,0,0,85.19,16.12Z"/><path class="cls-1" d="M93.7,18a2.3,2.3,0,0,1-.87.8,2.5,2.5,0,0,1-1.16.27,2.69,2.69,0,0,1-1.32-.33,2.32,2.32,0,0,1-.92-.92,2.86,2.86,0,0,1-.33-1.4A2.82,2.82,0,0,1,89.43,15a2.32,2.32,0,0,1,.92-.92,2.7,2.7,0,0,1,1.32-.32,2.51,2.51,0,0,1,1.16.27,2.31,2.31,0,0,1,.87.8l0,.07L95,14.12l0-.07a3.12,3.12,0,0,0-1.31-1.26,4.16,4.16,0,0,0-1.92-.43,4.46,4.46,0,0,0-2.15.51A3.8,3.8,0,0,0,88,14.31a4.3,4.3,0,0,0,0,4.16,3.84,3.84,0,0,0,1.49,1.44,4.4,4.4,0,0,0,2.15.52A4.1,4.1,0,0,0,93.6,20a3.17,3.17,0,0,0,1.31-1.27l0-.07-1.21-.76Z"/><path class="cls-1" d="M101.73,12.87h0a4,4,0,0,0-2-.52,4.06,4.06,0,0,0-2,.52,3.72,3.72,0,0,0-1.42,1.44,4.21,4.21,0,0,0-.51,2.07,4.14,4.14,0,0,0,.53,2.09,3.69,3.69,0,0,0,1.5,1.44,5,5,0,0,0,4,.19,3.49,3.49,0,0,0,1.34-1l0-.06-.89-1-.07.07A2.8,2.8,0,0,1,100,19a2.86,2.86,0,0,1-1.85-.6,2.34,2.34,0,0,1-.85-1.49h6.26v-.08a4,4,0,0,0,0-.43,4.4,4.4,0,0,0-.5-2.12A3.65,3.65,0,0,0,101.73,12.87Zm-4.41,2.89a2.37,2.37,0,0,1,.76-1.46,2.53,2.53,0,0,1,3.26,0,2.4,2.4,0,0,1,.76,1.45Z"/><path class="cls-1" d="M109.61,12.36a4.12,4.12,0,0,0-1.68.33,2.89,2.89,0,0,0-1,.75v-1h-1.52v7.92H107V16.27a2.53,2.53,0,0,1,.63-1.85,2.34,2.34,0,0,1,1.74-.64,2,2,0,0,1,1.49.54,2.3,2.3,0,0,1,.52,1.64v4.38h1.58V15.8a3.46,3.46,0,0,0-.9-2.57A3.3,3.3,0,0,0,109.61,12.36Z"/><path class="cls-1" d="M119.62,16.12a12,12,0,0,0-1.52-.35c-.48-.09-.83-.17-1.08-.23a1.58,1.58,0,0,1-.62-.3.65.65,0,0,1-.23-.53.79.79,0,0,1,.43-.7,2.51,2.51,0,0,1,1.31-.28,4,4,0,0,1,2.19.6l.08.05.68-1.26-.07,0a4.26,4.26,0,0,0-1.3-.52,6.62,6.62,0,0,0-1.57-.19,4,4,0,0,0-2.4.65,2.07,2.07,0,0,0-.91,1.76,1.88,1.88,0,0,0,.45,1.33,2.45,2.45,0,0,0,1.05.67,10.49,10.49,0,0,0,1.54.34c.45.08.81.15,1.05.21a1.49,1.49,0,0,1,.59.28.59.59,0,0,1,.22.49c0,.65-.57,1-1.75,1a5.05,5.05,0,0,1-1.45-.22,4.13,4.13,0,0,1-1.22-.57L115,18.2l-.66,1.26.06,0a4.11,4.11,0,0,0,1.4.67,6.63,6.63,0,0,0,1.85.26,4.34,4.34,0,0,0,2.5-.64,2,2,0,0,0,.94-1.74,1.82,1.82,0,0,0-.43-1.29A2.35,2.35,0,0,0,119.62,16.12Z"/><path class="cls-1" d="M128.17,12.87a4.59,4.59,0,0,0-4.23,0,3.76,3.76,0,0,0-1.47,1.44,4.35,4.35,0,0,0,0,4.16,3.8,3.8,0,0,0,1.47,1.44,4.53,4.53,0,0,0,4.23,0,3.82,3.82,0,0,0,1.46-1.44,4.35,4.35,0,0,0,0-4.16A3.78,3.78,0,0,0,128.17,12.87Zm.4,3.52a2.87,2.87,0,0,1-.33,1.38,2.35,2.35,0,0,1-.89.93,2.68,2.68,0,0,1-2.59,0,2.39,2.39,0,0,1-.9-.93,3,3,0,0,1,0-2.76,2.35,2.35,0,0,1,.9-.92,2.74,2.74,0,0,1,2.59,0,2.3,2.3,0,0,1,.89.92A2.87,2.87,0,0,1,128.58,16.39Z"/><path class="cls-1" d="M134.41,12.72a2.52,2.52,0,0,0-1,.8V12.43h-1.52v7.92h1.58V16.4a2.62,2.62,0,0,1,.63-1.88,2.29,2.29,0,0,1,1.73-.65h.41V12.36h-.09A4,4,0,0,0,134.41,12.72Z"/><path class="cls-1" d="M143,12.87h0a4,4,0,0,0-2-.52,4.06,4.06,0,0,0-2,.52,3.72,3.72,0,0,0-1.42,1.44,4.21,4.21,0,0,0-.51,2.07,4.14,4.14,0,0,0,.53,2.09,3.69,3.69,0,0,0,1.5,1.44,5,5,0,0,0,4,.19,3.49,3.49,0,0,0,1.34-1l0-.06-.89-1-.07.07a2.8,2.8,0,0,1-2.17.91,2.86,2.86,0,0,1-1.85-.6,2.34,2.34,0,0,1-.85-1.49h6.26v-.08a4,4,0,0,0,0-.43,4.4,4.4,0,0,0-.5-2.12A3.65,3.65,0,0,0,143,12.87Zm-4.41,2.89a2.37,2.37,0,0,1,.76-1.46,2.53,2.53,0,0,1,3.26,0,2.4,2.4,0,0,1,.76,1.45Z"/><path class="cls-1" d="M152,16.77a2.35,2.35,0,0,0-1-.64,12,12,0,0,0-1.52-.35c-.48-.09-.83-.17-1.08-.23a1.58,1.58,0,0,1-.62-.3.65.65,0,0,1-.23-.53A.79.79,0,0,1,148,14a2.51,2.51,0,0,1,1.31-.28,4,4,0,0,1,2.19.6l.08.05.68-1.26-.07,0a4.26,4.26,0,0,0-1.3-.52,6.62,6.62,0,0,0-1.57-.19,4,4,0,0,0-2.4.65,2.07,2.07,0,0,0-.91,1.76,1.88,1.88,0,0,0,.45,1.33,2.45,2.45,0,0,0,1.05.67,10.49,10.49,0,0,0,1.54.34c.45.08.81.15,1.05.21a1.49,1.49,0,0,1,.59.28.59.59,0,0,1,.22.49c0,.65-.57,1-1.75,1a5.05,5.05,0,0,1-1.45-.22,4.13,4.13,0,0,1-1.22-.57l-.08-.06-.66,1.26.06,0a4.11,4.11,0,0,0,1.4.67,6.63,6.63,0,0,0,1.85.26,4.34,4.34,0,0,0,2.5-.64,2,2,0,0,0,.94-1.74A1.82,1.82,0,0,0,152,16.77Z"/></svg>